<svg id="Layer_1" enable-background="new 0 0 512 512" height="512" viewBox="0 0 512 512" width="512" xmlns="http://www.w3.org/2000/svg"><g><path d="m454.982 131.023c0 .008.001.015.001.022 0 15.772 12.789 28.604 28.509 28.604 15.719 0 28.508-12.832 28.508-28.604v-55.291h-57.019v55.269z"/><path d="m421.004 131.045v-55.291h-57.018v55.291c0 15.772 12.789 28.604 28.509 28.604 15.72.001 28.509-12.832 28.509-28.604z"/><path d="m502.621.292-493.037-.292c-5.859 1.453-9.584 6.64-9.584 13.513v28.264h512v-27.241c0-7.145-3.557-12.481-9.379-14.244z"/><path d="m90.995 75.754v55.291c0 15.772 12.789 28.604 28.509 28.604 15.706 0 28.484-12.809 28.508-28.561 0-.015-.001-.029-.001-.044l.002-55.291h-57.018z"/><path d="m330.003 131.045c0-.037.005-.073.006-.109v-55.182h-57.023v55.291c0 15.772 12.789 28.604 28.509 28.604 15.719.001 28.508-12.832 28.508-28.604z"/><path d="m28.51 159.65c15.719 0 28.508-12.832 28.508-28.604v-55.292h-57.018v55.291c0 15.772 12.789 28.605 28.51 28.605z"/><path d="m210.498 159.65c15.72 0 28.509-12.832 28.509-28.604 0-.007.001-.014.001-.022v-55.27h-57.017l-.002 55.247c0 .015.002.029.002.044s-.001.029-.001.044c.024 15.752 12.803 28.561 28.508 28.561z"/><path d="m93.656 359.489h-63.656v-121.02c0-8.284-6.716-15-15-15s-15 6.716-15 15v258.531c0 8.284 6.716 15 15 15s15-6.716 15-15v-64.906h68.107v64.906c0 8.284 6.716 15 15 15s15-6.716 15-15v-103.058c0-18.998-15.455-34.453-34.451-34.453z"/><path d="m497 223.469c-8.284 0-15 6.716-15 15v121.021h-62.079c-18.996 0-34.451 15.455-34.451 34.452v103.058c0 8.284 6.716 15 15 15s15-6.716 15-15v-64.906h66.53v64.906c0 8.284 6.716 15 15 15s15-6.716 15-15v-258.531c0-8.284-6.716-15-15-15z"/><path d="m378.364 280.453h-244.727c-8.284 0-15 6.716-15 15 0 37.417 30.441 67.858 67.858 67.858h55.105v118.689h-27.856c-8.284 0-15 6.716-15 15s6.716 15 15 15h85.713c8.284 0 15-6.716 15-15s-6.716-15-15-15h-27.857v-118.688c13.387-.001 40.75.003 53.906.002 37.417 0 67.858-30.442 67.858-67.86 0-8.285-6.716-15.001-15-15.001z"/></g></svg>